<svg width="24" height="24" viewBox="0 0 24 24" fill="none" xmlns="http://www.w3.org/2000/svg">
<g id="sun" clip-path="url(#clip0_4_942)">
<path id="Vector (Stroke)" fill-rule="evenodd" clip-rule="evenodd" d="M6 12C6 8.68629 8.68629 6 12 6C15.3137 6 18 8.68629 18 12C18 15.3137 15.3137 18 12 18C8.68629 18 6 15.3137 6 12Z" fill="#0F0E0F"/>
<path id="Vector (Stroke)_2" fill-rule="evenodd" clip-rule="evenodd" d="M12 0C12.5523 0 13 0.447715 13 1V3C13 3.55228 12.5523 4 12 4C11.4477 4 11 3.55228 11 3V1C11 0.447715 11.4477 0 12 0Z" fill="#0F0E0F"/>
<path id="Vector (Stroke)_3" fill-rule="evenodd" clip-rule="evenodd" d="M12 20C12.5523 20 13 20.4477 13 21V23C13 23.5523 12.5523 24 12 24C11.4477 24 11 23.5523 11 23V21C11 20.4477 11.4477 20 12 20Z" fill="#0F0E0F"/>
<path id="Vector (Stroke)_4" fill-rule="evenodd" clip-rule="evenodd" d="M3.51164 3.51286C3.90217 3.12234 4.53533 3.12234 4.92586 3.51286L6.34586 4.93286C6.73638 5.32339 6.73638 5.95655 6.34586 6.34708C5.95533 6.7376 5.32217 6.7376 4.93164 6.34708L3.51164 4.92708C3.12112 4.53655 3.12112 3.90339 3.51164 3.51286Z" fill="#0F0E0F"/>
<path id="Vector (Stroke)_5" fill-rule="evenodd" clip-rule="evenodd" d="M17.6523 17.6528C18.0428 17.2622 18.676 17.2622 19.0665 17.6528L20.4865 19.0728C20.877 19.4633 20.877 20.0964 20.4865 20.487C20.096 20.8775 19.4628 20.8775 19.0723 20.487L17.6523 19.067C17.2617 18.6764 17.2617 18.0433 17.6523 17.6528Z" fill="#0F0E0F"/>
<path id="Vector (Stroke)_6" fill-rule="evenodd" clip-rule="evenodd" d="M0 12C0 11.4477 0.447715 11 1 11H3C3.55228 11 4 11.4477 4 12C4 12.5523 3.55228 13 3 13H1C0.447715 13 0 12.5523 0 12Z" fill="#0F0E0F"/>
<path id="Vector (Stroke)_7" fill-rule="evenodd" clip-rule="evenodd" d="M20 12C20 11.4477 20.4477 11 21 11H23C23.5523 11 24 11.4477 24 12C24 12.5523 23.5523 13 23 13H21C20.4477 13 20 12.5523 20 12Z" fill="#0F0E0F"/>
<path id="Vector (Stroke)_8" fill-rule="evenodd" clip-rule="evenodd" d="M6.34586 17.6528C6.73638 18.0433 6.73638 18.6764 6.34586 19.067L4.92586 20.487C4.53533 20.8775 3.90217 20.8775 3.51164 20.487C3.12112 20.0964 3.12112 19.4633 3.51164 19.0728L4.93164 17.6528C5.32217 17.2622 5.95533 17.2622 6.34586 17.6528Z" fill="#0F0E0F"/>
<path id="Vector (Stroke)_9" fill-rule="evenodd" clip-rule="evenodd" d="M20.4865 3.51286C20.877 3.90339 20.877 4.53655 20.4865 4.92708L19.0665 6.34708C18.676 6.7376 18.0428 6.7376 17.6523 6.34708C17.2617 5.95655 17.2617 5.32339 17.6523 4.93286L19.0723 3.51286C19.4628 3.12234 20.096 3.12234 20.4865 3.51286Z" fill="#0F0E0F"/>
</g>
<defs>
<clipPath id="clip0_4_942">
<rect width="24" height="24" fill="white"/>
</clipPath>
</defs>
</svg>
